<svg width="494" height="435" viewBox="0 0 494 435" fill="none" xmlns="http://www.w3.org/2000/svg">
<mask id="path-1-outside-1_212_237" maskUnits="userSpaceOnUse" x="0" y="0" width="494" height="435" fill="black">
<rect fill="white" width="494" height="435"/>
<path d="M251.13 417.119C280.641 410.01 304.744 391.542 332.625 379.537C362.963 366.475 400.07 366.615 423.197 343.031C446.976 318.784 450.209 282.138 460.024 249.626C471.492 211.639 498.144 172.968 485.937 135.211C473.792 97.6503 433.605 75.6776 398.163 58.296C366.758 42.8948 329.845 51.0366 296.034 42.0802C261.49 32.9301 232.034 -2.46388 197.095 5.0352C162.332 12.4965 151.901 59.0138 122.692 79.2853C88.4171 103.072 32.3611 97.1712 11.9252 133.543C-7.77315 168.603 14.012 213.187 25.8687 251.613C36.4388 285.871 56.5377 315.017 77.0019 344.454C97.4092 373.808 113.052 410.713 146.046 424.482C178.929 438.204 216.489 425.463 251.13 417.119Z"/>
<path d="M251.13 104.452V391.099C248.09 391.099 244.871 390.562 242.368 389.131L241.653 388.774C207.319 369.998 147.415 350.328 108.611 345.142L103.425 344.427C86.2585 342.281 72.3105 326.187 72.3105 309.02V93.0072C72.3105 71.7277 89.656 55.6339 110.936 57.4221C148.488 60.4621 205.352 79.4169 237.182 99.2659L241.653 101.948C244.335 103.558 247.732 104.452 251.13 104.452Z"/>
<path d="M429.949 93.1876V309.022C429.949 326.189 416.002 342.283 398.835 344.428L392.934 345.144C353.951 350.329 293.868 370.178 259.535 389.133C257.21 390.564 254.349 391.1 251.13 391.1V104.453C254.528 104.453 257.925 103.559 260.607 101.95L263.647 99.9828C295.477 79.955 352.521 60.8213 390.073 57.6026H391.146C412.425 55.8144 429.949 71.7293 429.949 93.1876Z"/>
<path fill-rule="evenodd" clip-rule="evenodd" d="M188.508 99.8576C187.553 100.003 185.648 101.14 184.275 102.385C181.797 104.633 181.783 104.683 182.302 110.147C182.59 113.172 183.168 119.762 183.586 124.792C186.842 164.005 187.376 175.747 185.945 176.606C183.537 178.051 182.209 175.87 159.749 133.593C152.051 119.1 150.583 117.573 145.823 119.098C138.272 121.517 138.866 125.174 150.929 150.516C152.477 153.767 153.742 156.562 153.742 156.728C153.742 156.895 155.1 159.894 156.763 163.394C165.77 182.369 168.117 190.087 165.21 191.17C163.15 191.937 159.48 190.03 156.464 186.625C154.93 184.892 153.042 182.789 152.269 181.95C151.496 181.113 149.303 178.54 147.396 176.234C145.489 173.929 143.747 171.872 143.525 171.662C143.303 171.452 139.67 167.284 135.453 162.398C131.235 157.512 127.237 153.311 126.568 153.062C122.722 151.63 117.63 154.456 117.63 158.022C117.63 161.136 125.34 173.661 141.388 196.617C151.446 211.003 153.809 216.182 156.086 228.82C160.907 255.595 167.467 272.009 175.955 278.537C181.733 282.982 181.896 283.014 195.5 282.45L207.96 281.933L217.427 269.667C222.634 262.919 227.303 256.885 227.804 256.256C231.435 251.687 240.882 235.502 240.882 233.85C240.882 233.614 235.973 233.639 229.974 233.903C222.586 234.231 217.455 234.081 214.076 233.444C208.219 232.337 200.841 229.078 196.794 225.809C190.406 220.649 188.529 211.49 192.511 204.896C195.485 199.969 199.608 197.856 208.275 196.812C215.28 195.971 222.774 193.988 233.62 190.111L239.312 188.076V179.177C239.312 170.059 241.104 138.262 242.464 123.268C243.532 111.478 243.55 111.606 240.568 108.711C238.508 106.712 237.245 106.12 235.038 106.12C229.477 106.12 229.173 106.865 223.666 133.946C220.94 147.355 218.217 161.069 217.615 164.422C216.3 171.741 215.268 174.438 213.532 175.085C211.263 175.931 209.139 172.482 208.119 166.298C207.604 163.17 206.26 154.952 205.133 148.036C203.046 135.226 198.874 111.227 197.982 106.897C197.447 104.298 193.932 100.412 191.663 99.9079C190.884 99.7349 189.464 99.712 188.508 99.8576ZM293.087 178.298C289.594 179.103 279.444 182.672 274.815 184.722C272.107 185.923 269.684 186.904 269.433 186.904C269.182 186.904 262.566 189.98 254.733 193.74C238.191 201.678 219.035 208.243 212.408 208.245C207.851 208.246 202.948 210.203 202.57 212.171C202.149 214.372 206.92 218.727 211.686 220.49C215.912 222.052 217.015 222.117 232.155 221.682C245.686 221.297 248.556 221.408 250.728 222.409C254.464 224.13 255.49 227.062 254.253 232.485C252.992 238.015 245.969 251.689 240.309 259.635C236.631 264.799 214.739 293.083 202.022 309.1C197.483 314.817 197.28 317.729 201.158 321.494C206.181 326.369 205.533 326.804 232.522 300.467C257.714 275.887 259.817 274.275 260.956 278.684C261.649 281.362 261.808 280.971 250.608 304.166C248.712 308.09 247.162 311.41 247.162 311.541C247.162 311.673 245.883 314.462 244.321 317.742C231.489 344.671 230.966 346.48 234.679 351.063C236.007 352.703 236.921 353.041 239.958 353.022C241.976 353.009 244.174 352.579 244.839 352.068C245.504 351.558 249.359 345.31 253.408 338.184C260.5 325.7 264.663 318.467 268.191 312.502C281.22 290.462 281.157 290.552 283.516 290.552C285.023 290.552 285.065 290.907 284.598 299.888C284.173 308.088 283.101 317.86 280.145 340.471C279.027 349.008 279.17 356.183 280.49 357.874C282.044 359.864 287.439 360.426 289.91 358.855C292.447 357.241 293.629 353.163 296.569 335.898C302.796 299.301 304.357 292.34 306.823 290.174C308.343 288.838 308.451 288.839 310.039 290.235C310.942 291.029 312.004 292.265 312.399 292.982C312.795 293.698 313.984 302.276 315.043 312.043C318.02 339.533 318.277 340.956 320.607 342.948C323.182 345.149 325.812 345.123 328.507 342.874C330.559 341.16 330.677 340.659 331.357 330.871C331.746 325.252 331.908 314.14 331.715 306.175C331.34 290.666 332.075 277.68 333.585 273.153C334.098 271.614 336.548 265.726 339.03 260.067C341.512 254.409 345.036 245.321 346.86 239.872C352.483 223.076 352.059 209.59 345.712 203.396C344.364 202.081 340.305 199.464 336.693 197.583C332.079 195.18 327.737 191.983 322.097 186.835C315.654 180.956 313.362 179.335 310.492 178.633C307.005 177.781 296.231 177.573 293.087 178.298ZM354.335 200.579C354.029 201.515 354.6 204.071 355.751 206.911C358.295 213.19 358.874 218.718 357.768 226.153C356.343 235.734 356.402 236.785 358.393 237.06C361.082 237.432 362.452 234.468 363.452 226.111C364.541 217.009 363.585 210.072 360.358 203.671C358.038 199.068 355.29 197.657 354.335 200.579ZM368.592 203.209C368.361 203.793 368.884 206.452 369.755 209.116C371.806 215.393 371.412 225.308 368.81 232.863C367.182 237.592 367.134 238.157 368.266 239.255C370.945 241.857 373.69 238.264 375.559 229.708C377.538 220.642 376.703 209.382 373.64 203.826C372.598 201.935 369.257 201.527 368.592 203.209ZM151.566 268.581C149.949 270.151 150.478 272.389 153.876 278.358C159.643 288.489 173.576 300.09 176.829 297.47C179.133 295.613 178.221 293.902 173.383 291.003C167.337 287.38 162.014 281.497 158.023 274.025C154.842 268.069 153.372 266.829 151.566 268.581ZM140.406 273.392C139.164 274.846 140.157 278.44 143.779 285.598C148.752 295.424 159.508 305.502 163.452 304.032C165.54 303.255 165.002 300.181 162.531 298.764C155.979 295.006 149.612 286.563 146.28 277.215C144.547 272.35 142.459 270.99 140.406 273.392Z"/>
</mask>
<path d="M251.13 417.119C280.641 410.01 304.744 391.542 332.625 379.537C362.963 366.475 400.07 366.615 423.197 343.031C446.976 318.784 450.209 282.138 460.024 249.626C471.492 211.639 498.144 172.968 485.937 135.211C473.792 97.6503 433.605 75.6776 398.163 58.296C366.758 42.8948 329.845 51.0366 296.034 42.0802C261.49 32.9301 232.034 -2.46388 197.095 5.0352C162.332 12.4965 151.901 59.0138 122.692 79.2853C88.4171 103.072 32.3611 97.1712 11.9252 133.543C-7.77315 168.603 14.012 213.187 25.8687 251.613C36.4388 285.871 56.5377 315.017 77.0019 344.454C97.4092 373.808 113.052 410.713 146.046 424.482C178.929 438.204 216.489 425.463 251.13 417.119Z" fill="url(#paint0_linear_212_237)"/>
<path d="M251.13 104.452V391.099C248.09 391.099 244.871 390.562 242.368 389.131L241.653 388.774C207.319 369.998 147.415 350.328 108.611 345.142L103.425 344.427C86.2585 342.281 72.3105 326.187 72.3105 309.02V93.0072C72.3105 71.7277 89.656 55.6339 110.936 57.4221C148.488 60.4621 205.352 79.4169 237.182 99.2659L241.653 101.948C244.335 103.558 247.732 104.452 251.13 104.452Z" fill="#2F9E41"/>
<path d="M429.949 93.1876V309.022C429.949 326.189 416.002 342.283 398.835 344.428L392.934 345.144C353.951 350.329 293.868 370.178 259.535 389.133C257.21 390.564 254.349 391.1 251.13 391.1V104.453C254.528 104.453 257.925 103.559 260.607 101.95L263.647 99.9828C295.477 79.955 352.521 60.8213 390.073 57.6026H391.146C412.425 55.8144 429.949 71.7293 429.949 93.1876Z" fill="#2F9E41"/>
<path fill-rule="evenodd" clip-rule="evenodd" d="M188.508 99.8576C187.553 100.003 185.648 101.14 184.275 102.385C181.797 104.633 181.783 104.683 182.302 110.147C182.59 113.172 183.168 119.762 183.586 124.792C186.842 164.005 187.376 175.747 185.945 176.606C183.537 178.051 182.209 175.87 159.749 133.593C152.051 119.1 150.583 117.573 145.823 119.098C138.272 121.517 138.866 125.174 150.929 150.516C152.477 153.767 153.742 156.562 153.742 156.728C153.742 156.895 155.1 159.894 156.763 163.394C165.77 182.369 168.117 190.087 165.21 191.17C163.15 191.937 159.48 190.03 156.464 186.625C154.93 184.892 153.042 182.789 152.269 181.95C151.496 181.113 149.303 178.54 147.396 176.234C145.489 173.929 143.747 171.872 143.525 171.662C143.303 171.452 139.67 167.284 135.453 162.398C131.235 157.512 127.237 153.311 126.568 153.062C122.722 151.63 117.63 154.456 117.63 158.022C117.63 161.136 125.34 173.661 141.388 196.617C151.446 211.003 153.809 216.182 156.086 228.82C160.907 255.595 167.467 272.009 175.955 278.537C181.733 282.982 181.896 283.014 195.5 282.45L207.96 281.933L217.427 269.667C222.634 262.919 227.303 256.885 227.804 256.256C231.435 251.687 240.882 235.502 240.882 233.85C240.882 233.614 235.973 233.639 229.974 233.903C222.586 234.231 217.455 234.081 214.076 233.444C208.219 232.337 200.841 229.078 196.794 225.809C190.406 220.649 188.529 211.49 192.511 204.896C195.485 199.969 199.608 197.856 208.275 196.812C215.28 195.971 222.774 193.988 233.62 190.111L239.312 188.076V179.177C239.312 170.059 241.104 138.262 242.464 123.268C243.532 111.478 243.55 111.606 240.568 108.711C238.508 106.712 237.245 106.12 235.038 106.12C229.477 106.12 229.173 106.865 223.666 133.946C220.94 147.355 218.217 161.069 217.615 164.422C216.3 171.741 215.268 174.438 213.532 175.085C211.263 175.931 209.139 172.482 208.119 166.298C207.604 163.17 206.26 154.952 205.133 148.036C203.046 135.226 198.874 111.227 197.982 106.897C197.447 104.298 193.932 100.412 191.663 99.9079C190.884 99.7349 189.464 99.712 188.508 99.8576ZM293.087 178.298C289.594 179.103 279.444 182.672 274.815 184.722C272.107 185.923 269.684 186.904 269.433 186.904C269.182 186.904 262.566 189.98 254.733 193.74C238.191 201.678 219.035 208.243 212.408 208.245C207.851 208.246 202.948 210.203 202.57 212.171C202.149 214.372 206.92 218.727 211.686 220.49C215.912 222.052 217.015 222.117 232.155 221.682C245.686 221.297 248.556 221.408 250.728 222.409C254.464 224.13 255.49 227.062 254.253 232.485C252.992 238.015 245.969 251.689 240.309 259.635C236.631 264.799 214.739 293.083 202.022 309.1C197.483 314.817 197.28 317.729 201.158 321.494C206.181 326.369 205.533 326.804 232.522 300.467C257.714 275.887 259.817 274.275 260.956 278.684C261.649 281.362 261.808 280.971 250.608 304.166C248.712 308.09 247.162 311.41 247.162 311.541C247.162 311.673 245.883 314.462 244.321 317.742C231.489 344.671 230.966 346.48 234.679 351.063C236.007 352.703 236.921 353.041 239.958 353.022C241.976 353.009 244.174 352.579 244.839 352.068C245.504 351.558 249.359 345.31 253.408 338.184C260.5 325.7 264.663 318.467 268.191 312.502C281.22 290.462 281.157 290.552 283.516 290.552C285.023 290.552 285.065 290.907 284.598 299.888C284.173 308.088 283.101 317.86 280.145 340.471C279.027 349.008 279.17 356.183 280.49 357.874C282.044 359.864 287.439 360.426 289.91 358.855C292.447 357.241 293.629 353.163 296.569 335.898C302.796 299.301 304.357 292.34 306.823 290.174C308.343 288.838 308.451 288.839 310.039 290.235C310.942 291.029 312.004 292.265 312.399 292.982C312.795 293.698 313.984 302.276 315.043 312.043C318.02 339.533 318.277 340.956 320.607 342.948C323.182 345.149 325.812 345.123 328.507 342.874C330.559 341.16 330.677 340.659 331.357 330.871C331.746 325.252 331.908 314.14 331.715 306.175C331.34 290.666 332.075 277.68 333.585 273.153C334.098 271.614 336.548 265.726 339.03 260.067C341.512 254.409 345.036 245.321 346.86 239.872C352.483 223.076 352.059 209.59 345.712 203.396C344.364 202.081 340.305 199.464 336.693 197.583C332.079 195.18 327.737 191.983 322.097 186.835C315.654 180.956 313.362 179.335 310.492 178.633C307.005 177.781 296.231 177.573 293.087 178.298ZM354.335 200.579C354.029 201.515 354.6 204.071 355.751 206.911C358.295 213.19 358.874 218.718 357.768 226.153C356.343 235.734 356.402 236.785 358.393 237.06C361.082 237.432 362.452 234.468 363.452 226.111C364.541 217.009 363.585 210.072 360.358 203.671C358.038 199.068 355.29 197.657 354.335 200.579ZM368.592 203.209C368.361 203.793 368.884 206.452 369.755 209.116C371.806 215.393 371.412 225.308 368.81 232.863C367.182 237.592 367.134 238.157 368.266 239.255C370.945 241.857 373.69 238.264 375.559 229.708C377.538 220.642 376.703 209.382 373.64 203.826C372.598 201.935 369.257 201.527 368.592 203.209ZM151.566 268.581C149.949 270.151 150.478 272.389 153.876 278.358C159.643 288.489 173.576 300.09 176.829 297.47C179.133 295.613 178.221 293.902 173.383 291.003C167.337 287.38 162.014 281.497 158.023 274.025C154.842 268.069 153.372 266.829 151.566 268.581ZM140.406 273.392C139.164 274.846 140.157 278.44 143.779 285.598C148.752 295.424 159.508 305.502 163.452 304.032C165.54 303.255 165.002 300.181 162.531 298.764C155.979 295.006 149.612 286.563 146.28 277.215C144.547 272.35 142.459 270.99 140.406 273.392Z" fill="url(#paint1_linear_212_237)"/>
<path d="M251.13 417.119C280.641 410.01 304.744 391.542 332.625 379.537C362.963 366.475 400.07 366.615 423.197 343.031C446.976 318.784 450.209 282.138 460.024 249.626C471.492 211.639 498.144 172.968 485.937 135.211C473.792 97.6503 433.605 75.6776 398.163 58.296C366.758 42.8948 329.845 51.0366 296.034 42.0802C261.49 32.9301 232.034 -2.46388 197.095 5.0352C162.332 12.4965 151.901 59.0138 122.692 79.2853C88.4171 103.072 32.3611 97.1712 11.9252 133.543C-7.77315 168.603 14.012 213.187 25.8687 251.613C36.4388 285.871 56.5377 315.017 77.0019 344.454C97.4092 373.808 113.052 410.713 146.046 424.482C178.929 438.204 216.489 425.463 251.13 417.119Z" stroke="white" stroke-width="8" mask="url(#path-1-outside-1_212_237)"/>
<path d="M251.13 104.452V391.099C248.09 391.099 244.871 390.562 242.368 389.131L241.653 388.774C207.319 369.998 147.415 350.328 108.611 345.142L103.425 344.427C86.2585 342.281 72.3105 326.187 72.3105 309.02V93.0072C72.3105 71.7277 89.656 55.6339 110.936 57.4221C148.488 60.4621 205.352 79.4169 237.182 99.2659L241.653 101.948C244.335 103.558 247.732 104.452 251.13 104.452Z" stroke="white" stroke-width="8" mask="url(#path-1-outside-1_212_237)"/>
<path d="M429.949 93.1876V309.022C429.949 326.189 416.002 342.283 398.835 344.428L392.934 345.144C353.951 350.329 293.868 370.178 259.535 389.133C257.21 390.564 254.349 391.1 251.13 391.1V104.453C254.528 104.453 257.925 103.559 260.607 101.95L263.647 99.9828C295.477 79.955 352.521 60.8213 390.073 57.6026H391.146C412.425 55.8144 429.949 71.7293 429.949 93.1876Z" stroke="white" stroke-width="8" mask="url(#path-1-outside-1_212_237)"/>
<path fill-rule="evenodd" clip-rule="evenodd" d="M188.508 99.8576C187.553 100.003 185.648 101.14 184.275 102.385C181.797 104.633 181.783 104.683 182.302 110.147C182.59 113.172 183.168 119.762 183.586 124.792C186.842 164.005 187.376 175.747 185.945 176.606C183.537 178.051 182.209 175.87 159.749 133.593C152.051 119.1 150.583 117.573 145.823 119.098C138.272 121.517 138.866 125.174 150.929 150.516C152.477 153.767 153.742 156.562 153.742 156.728C153.742 156.895 155.1 159.894 156.763 163.394C165.77 182.369 168.117 190.087 165.21 191.17C163.15 191.937 159.48 190.03 156.464 186.625C154.93 184.892 153.042 182.789 152.269 181.95C151.496 181.113 149.303 178.54 147.396 176.234C145.489 173.929 143.747 171.872 143.525 171.662C143.303 171.452 139.67 167.284 135.453 162.398C131.235 157.512 127.237 153.311 126.568 153.062C122.722 151.63 117.63 154.456 117.63 158.022C117.63 161.136 125.34 173.661 141.388 196.617C151.446 211.003 153.809 216.182 156.086 228.82C160.907 255.595 167.467 272.009 175.955 278.537C181.733 282.982 181.896 283.014 195.5 282.45L207.96 281.933L217.427 269.667C222.634 262.919 227.303 256.885 227.804 256.256C231.435 251.687 240.882 235.502 240.882 233.85C240.882 233.614 235.973 233.639 229.974 233.903C222.586 234.231 217.455 234.081 214.076 233.444C208.219 232.337 200.841 229.078 196.794 225.809C190.406 220.649 188.529 211.49 192.511 204.896C195.485 199.969 199.608 197.856 208.275 196.812C215.28 195.971 222.774 193.988 233.62 190.111L239.312 188.076V179.177C239.312 170.059 241.104 138.262 242.464 123.268C243.532 111.478 243.55 111.606 240.568 108.711C238.508 106.712 237.245 106.12 235.038 106.12C229.477 106.12 229.173 106.865 223.666 133.946C220.94 147.355 218.217 161.069 217.615 164.422C216.3 171.741 215.268 174.438 213.532 175.085C211.263 175.931 209.139 172.482 208.119 166.298C207.604 163.17 206.26 154.952 205.133 148.036C203.046 135.226 198.874 111.227 197.982 106.897C197.447 104.298 193.932 100.412 191.663 99.9079C190.884 99.7349 189.464 99.712 188.508 99.8576ZM293.087 178.298C289.594 179.103 279.444 182.672 274.815 184.722C272.107 185.923 269.684 186.904 269.433 186.904C269.182 186.904 262.566 189.98 254.733 193.74C238.191 201.678 219.035 208.243 212.408 208.245C207.851 208.246 202.948 210.203 202.57 212.171C202.149 214.372 206.92 218.727 211.686 220.49C215.912 222.052 217.015 222.117 232.155 221.682C245.686 221.297 248.556 221.408 250.728 222.409C254.464 224.13 255.49 227.062 254.253 232.485C252.992 238.015 245.969 251.689 240.309 259.635C236.631 264.799 214.739 293.083 202.022 309.1C197.483 314.817 197.28 317.729 201.158 321.494C206.181 326.369 205.533 326.804 232.522 300.467C257.714 275.887 259.817 274.275 260.956 278.684C261.649 281.362 261.808 280.971 250.608 304.166C248.712 308.09 247.162 311.41 247.162 311.541C247.162 311.673 245.883 314.462 244.321 317.742C231.489 344.671 230.966 346.48 234.679 351.063C236.007 352.703 236.921 353.041 239.958 353.022C241.976 353.009 244.174 352.579 244.839 352.068C245.504 351.558 249.359 345.31 253.408 338.184C260.5 325.7 264.663 318.467 268.191 312.502C281.22 290.462 281.157 290.552 283.516 290.552C285.023 290.552 285.065 290.907 284.598 299.888C284.173 308.088 283.101 317.86 280.145 340.471C279.027 349.008 279.17 356.183 280.49 357.874C282.044 359.864 287.439 360.426 289.91 358.855C292.447 357.241 293.629 353.163 296.569 335.898C302.796 299.301 304.357 292.34 306.823 290.174C308.343 288.838 308.451 288.839 310.039 290.235C310.942 291.029 312.004 292.265 312.399 292.982C312.795 293.698 313.984 302.276 315.043 312.043C318.02 339.533 318.277 340.956 320.607 342.948C323.182 345.149 325.812 345.123 328.507 342.874C330.559 341.16 330.677 340.659 331.357 330.871C331.746 325.252 331.908 314.14 331.715 306.175C331.34 290.666 332.075 277.68 333.585 273.153C334.098 271.614 336.548 265.726 339.03 260.067C341.512 254.409 345.036 245.321 346.86 239.872C352.483 223.076 352.059 209.59 345.712 203.396C344.364 202.081 340.305 199.464 336.693 197.583C332.079 195.18 327.737 191.983 322.097 186.835C315.654 180.956 313.362 179.335 310.492 178.633C307.005 177.781 296.231 177.573 293.087 178.298ZM354.335 200.579C354.029 201.515 354.6 204.071 355.751 206.911C358.295 213.19 358.874 218.718 357.768 226.153C356.343 235.734 356.402 236.785 358.393 237.06C361.082 237.432 362.452 234.468 363.452 226.111C364.541 217.009 363.585 210.072 360.358 203.671C358.038 199.068 355.29 197.657 354.335 200.579ZM368.592 203.209C368.361 203.793 368.884 206.452 369.755 209.116C371.806 215.393 371.412 225.308 368.81 232.863C367.182 237.592 367.134 238.157 368.266 239.255C370.945 241.857 373.69 238.264 375.559 229.708C377.538 220.642 376.703 209.382 373.64 203.826C372.598 201.935 369.257 201.527 368.592 203.209ZM151.566 268.581C149.949 270.151 150.478 272.389 153.876 278.358C159.643 288.489 173.576 300.09 176.829 297.47C179.133 295.613 178.221 293.902 173.383 291.003C167.337 287.38 162.014 281.497 158.023 274.025C154.842 268.069 153.372 266.829 151.566 268.581ZM140.406 273.392C139.164 274.846 140.157 278.44 143.779 285.598C148.752 295.424 159.508 305.502 163.452 304.032C165.54 303.255 165.002 300.181 162.531 298.764C155.979 295.006 149.612 286.563 146.28 277.215C144.547 272.35 142.459 270.99 140.406 273.392Z" stroke="white" stroke-width="8" mask="url(#path-1-outside-1_212_237)"/>
<defs>
<linearGradient id="paint0_linear_212_237" x1="246.533" y1="4" x2="246.533" y2="430.537" gradientUnits="userSpaceOnUse">
<stop stop-color="#2266D2"/>
<stop offset="1" stop-color="#113817"/>
</linearGradient>
<linearGradient id="paint1_linear_212_237" x1="247.13" y1="99.7617" x2="247.13" y2="359.762" gradientUnits="userSpaceOnUse">
<stop stop-color="#2266D2"/>
<stop offset="1" stop-color="#113817"/>
</linearGradient>
</defs>
</svg>
