<svg width="1335" height="441" viewBox="0 0 1335 441" fill="none" xmlns="http://www.w3.org/2000/svg">
<mask id="path-1-outside-1_3_6" maskUnits="userSpaceOnUse" x="0" y="0" width="500" height="441" fill="black">
<rect fill="white" width="500" height="441"/>
<path d="M254.13 420.119C283.641 413.01 307.744 394.542 335.625 382.537C365.963 369.475 403.07 369.615 426.197 346.031C449.976 321.784 453.209 285.138 463.024 252.626C474.492 214.639 501.144 175.968 488.937 138.211C476.792 100.65 436.605 78.6776 401.163 61.296C369.758 45.8948 332.845 54.0366 299.034 45.0802C264.49 35.9301 235.034 0.536123 200.095 8.0352C165.332 15.4965 154.901 62.0138 125.692 82.2853C91.4171 106.072 35.3611 100.171 14.9252 136.543C-4.77315 171.603 17.012 216.187 28.8687 254.613C39.4388 288.871 59.5377 318.017 80.0019 347.454C100.409 376.808 116.052 413.713 149.046 427.482C181.929 441.204 219.489 428.463 254.13 420.119Z"/>
<path d="M254.13 107.452V394.099C251.09 394.099 247.871 393.562 245.368 392.131L244.653 391.774C210.319 372.998 150.415 353.328 111.611 348.142L106.425 347.427C89.2585 345.281 75.3105 329.187 75.3105 312.02V96.0072C75.3105 74.7277 92.656 58.6339 113.936 60.4221C151.488 63.4621 208.352 82.4169 240.182 102.266L244.653 104.948C247.335 106.558 250.732 107.452 254.13 107.452Z"/>
<path d="M432.949 96.1876V312.022C432.949 329.189 419.002 345.283 401.835 347.428L395.934 348.144C356.951 353.329 296.868 373.178 262.535 392.133C260.21 393.564 257.349 394.1 254.13 394.1V107.453C257.528 107.453 260.925 106.559 263.607 104.95L266.647 102.983C298.477 82.955 355.521 63.8213 393.073 60.6026H394.146C415.425 58.8144 432.949 74.7293 432.949 96.1876Z"/>
<path fill-rule="evenodd" clip-rule="evenodd" d="M191.508 102.858C190.553 103.003 188.648 104.14 187.275 105.385C184.797 107.633 184.783 107.683 185.302 113.147C185.59 116.172 186.168 122.762 186.586 127.792C189.842 167.005 190.376 178.747 188.945 179.606C186.537 181.051 185.209 178.87 162.749 136.593C155.051 122.1 153.583 120.573 148.823 122.098C141.272 124.517 141.866 128.174 153.929 153.516C155.477 156.767 156.742 159.562 156.742 159.728C156.742 159.895 158.1 162.894 159.763 166.394C168.77 185.369 171.117 193.087 168.21 194.17C166.15 194.937 162.48 193.03 159.464 189.625C157.93 187.892 156.042 185.789 155.269 184.95C154.496 184.113 152.303 181.54 150.396 179.234C148.489 176.929 146.747 174.872 146.525 174.662C146.303 174.452 142.67 170.284 138.453 165.398C134.235 160.512 130.237 156.311 129.568 156.062C125.722 154.63 120.63 157.456 120.63 161.022C120.63 164.136 128.34 176.661 144.388 199.617C154.446 214.003 156.809 219.182 159.086 231.82C163.907 258.595 170.467 275.009 178.955 281.537C184.733 285.982 184.896 286.014 198.5 285.45L210.96 284.933L220.427 272.667C225.634 265.919 230.303 259.885 230.804 259.256C234.435 254.687 243.882 238.502 243.882 236.85C243.882 236.614 238.973 236.639 232.974 236.903C225.586 237.231 220.455 237.081 217.076 236.444C211.219 235.337 203.841 232.078 199.794 228.809C193.406 223.649 191.529 214.49 195.511 207.896C198.485 202.969 202.608 200.856 211.275 199.812C218.28 198.971 225.774 196.988 236.62 193.111L242.312 191.076V182.177C242.312 173.059 244.104 141.262 245.464 126.268C246.532 114.478 246.55 114.606 243.568 111.711C241.508 109.712 240.245 109.12 238.038 109.12C232.477 109.12 232.173 109.865 226.666 136.946C223.94 150.355 221.217 164.069 220.615 167.422C219.3 174.741 218.268 177.438 216.532 178.085C214.263 178.931 212.139 175.482 211.119 169.298C210.604 166.17 209.26 157.952 208.133 151.036C206.046 138.226 201.874 114.227 200.982 109.897C200.447 107.298 196.932 103.412 194.663 102.908C193.884 102.735 192.464 102.712 191.508 102.858ZM296.087 181.298C292.594 182.103 282.444 185.672 277.815 187.722C275.106 188.923 272.684 189.904 272.433 189.904C272.182 189.904 265.566 192.98 257.733 196.74C241.191 204.678 222.035 211.243 215.408 211.245C210.851 211.246 205.948 213.203 205.57 215.171C205.149 217.372 209.92 221.727 214.686 223.49C218.912 225.052 220.015 225.117 235.155 224.682C248.686 224.297 251.556 224.408 253.728 225.409C257.464 227.13 258.49 230.062 257.253 235.485C255.992 241.015 248.969 254.689 243.309 262.635C239.631 267.799 217.739 296.083 205.022 312.1C200.483 317.817 200.28 320.729 204.158 324.494C209.181 329.369 208.533 329.804 235.522 303.467C260.714 278.887 262.817 277.275 263.956 281.684C264.649 284.362 264.808 283.971 253.608 307.166C251.712 311.09 250.162 314.41 250.162 314.541C250.162 314.673 248.883 317.462 247.321 320.742C234.489 347.671 233.966 349.48 237.679 354.063C239.007 355.703 239.921 356.041 242.958 356.022C244.976 356.009 247.174 355.58 247.839 355.068C248.504 354.558 252.359 348.31 256.408 341.184C263.5 328.7 267.663 321.467 271.191 315.502C284.22 293.462 284.157 293.552 286.516 293.552C288.023 293.552 288.065 293.907 287.598 302.888C287.173 311.088 286.101 320.86 283.145 343.471C282.027 352.008 282.17 359.183 283.49 360.874C285.044 362.864 290.439 363.426 292.91 361.855C295.447 360.241 296.629 356.163 299.569 338.898C305.796 302.301 307.357 295.34 309.823 293.174C311.343 291.838 311.451 291.839 313.039 293.235C313.942 294.029 315.004 295.265 315.399 295.982C315.795 296.698 316.984 305.276 318.043 315.043C321.02 342.533 321.277 343.956 323.607 345.948C326.182 348.149 328.812 348.123 331.507 345.874C333.559 344.16 333.677 343.659 334.357 333.871C334.746 328.252 334.908 317.14 334.715 309.175C334.34 293.666 335.075 280.68 336.585 276.153C337.098 274.614 339.548 268.726 342.03 263.067C344.512 257.409 348.036 248.321 349.86 242.872C355.483 226.076 355.059 212.59 348.712 206.396C347.364 205.081 343.305 202.464 339.693 200.583C335.079 198.18 330.737 194.983 325.097 189.835C318.654 183.956 316.362 182.335 313.492 181.633C310.005 180.781 299.231 180.573 296.087 181.298ZM357.335 203.579C357.029 204.515 357.6 207.071 358.751 209.911C361.295 216.19 361.874 221.718 360.768 229.153C359.343 238.734 359.402 239.785 361.393 240.06C364.082 240.432 365.452 237.468 366.452 229.111C367.541 220.009 366.585 213.072 363.358 206.671C361.038 202.068 358.29 200.657 357.335 203.579ZM371.592 206.209C371.361 206.793 371.884 209.452 372.755 212.116C374.806 218.393 374.412 228.308 371.81 235.863C370.182 240.592 370.134 241.157 371.266 242.255C373.945 244.857 376.69 241.264 378.559 232.708C380.538 223.642 379.703 212.382 376.64 206.826C375.598 204.935 372.257 204.527 371.592 206.209ZM154.566 271.581C152.949 273.151 153.478 275.389 156.876 281.358C162.643 291.489 176.576 303.09 179.829 300.47C182.133 298.613 181.221 296.902 176.383 294.003C170.337 290.38 165.014 284.497 161.023 277.025C157.842 271.069 156.372 269.829 154.566 271.581ZM143.406 276.392C142.164 277.846 143.157 281.44 146.779 288.598C151.752 298.424 162.508 308.502 166.452 307.032C168.54 306.255 168.002 303.181 165.531 301.764C158.979 298.006 152.612 289.563 149.28 280.215C147.547 275.35 145.459 273.99 143.406 276.392Z"/>
</mask>
<path d="M254.13 420.119C283.641 413.01 307.744 394.542 335.625 382.537C365.963 369.475 403.07 369.615 426.197 346.031C449.976 321.784 453.209 285.138 463.024 252.626C474.492 214.639 501.144 175.968 488.937 138.211C476.792 100.65 436.605 78.6776 401.163 61.296C369.758 45.8948 332.845 54.0366 299.034 45.0802C264.49 35.9301 235.034 0.536123 200.095 8.0352C165.332 15.4965 154.901 62.0138 125.692 82.2853C91.4171 106.072 35.3611 100.171 14.9252 136.543C-4.77315 171.603 17.012 216.187 28.8687 254.613C39.4388 288.871 59.5377 318.017 80.0019 347.454C100.409 376.808 116.052 413.713 149.046 427.482C181.929 441.204 219.489 428.463 254.13 420.119Z" fill="url(#paint0_linear_3_6)"/>
<path d="M254.13 107.452V394.099C251.09 394.099 247.871 393.562 245.368 392.131L244.653 391.774C210.319 372.998 150.415 353.328 111.611 348.142L106.425 347.427C89.2585 345.281 75.3105 329.187 75.3105 312.02V96.0072C75.3105 74.7277 92.656 58.6339 113.936 60.4221C151.488 63.4621 208.352 82.4169 240.182 102.266L244.653 104.948C247.335 106.558 250.732 107.452 254.13 107.452Z" fill="#2F9E41"/>
<path d="M432.949 96.1876V312.022C432.949 329.189 419.002 345.283 401.835 347.428L395.934 348.144C356.951 353.329 296.868 373.178 262.535 392.133C260.21 393.564 257.349 394.1 254.13 394.1V107.453C257.528 107.453 260.925 106.559 263.607 104.95L266.647 102.983C298.477 82.955 355.521 63.8213 393.073 60.6026H394.146C415.425 58.8144 432.949 74.7293 432.949 96.1876Z" fill="#2F9E41"/>
<path fill-rule="evenodd" clip-rule="evenodd" d="M191.508 102.858C190.553 103.003 188.648 104.14 187.275 105.385C184.797 107.633 184.783 107.683 185.302 113.147C185.59 116.172 186.168 122.762 186.586 127.792C189.842 167.005 190.376 178.747 188.945 179.606C186.537 181.051 185.209 178.87 162.749 136.593C155.051 122.1 153.583 120.573 148.823 122.098C141.272 124.517 141.866 128.174 153.929 153.516C155.477 156.767 156.742 159.562 156.742 159.728C156.742 159.895 158.1 162.894 159.763 166.394C168.77 185.369 171.117 193.087 168.21 194.17C166.15 194.937 162.48 193.03 159.464 189.625C157.93 187.892 156.042 185.789 155.269 184.95C154.496 184.113 152.303 181.54 150.396 179.234C148.489 176.929 146.747 174.872 146.525 174.662C146.303 174.452 142.67 170.284 138.453 165.398C134.235 160.512 130.237 156.311 129.568 156.062C125.722 154.63 120.63 157.456 120.63 161.022C120.63 164.136 128.34 176.661 144.388 199.617C154.446 214.003 156.809 219.182 159.086 231.82C163.907 258.595 170.467 275.009 178.955 281.537C184.733 285.982 184.896 286.014 198.5 285.45L210.96 284.933L220.427 272.667C225.634 265.919 230.303 259.885 230.804 259.256C234.435 254.687 243.882 238.502 243.882 236.85C243.882 236.614 238.973 236.639 232.974 236.903C225.586 237.231 220.455 237.081 217.076 236.444C211.219 235.337 203.841 232.078 199.794 228.809C193.406 223.649 191.529 214.49 195.511 207.896C198.485 202.969 202.608 200.856 211.275 199.812C218.28 198.971 225.774 196.988 236.62 193.111L242.312 191.076V182.177C242.312 173.059 244.104 141.262 245.464 126.268C246.532 114.478 246.55 114.606 243.568 111.711C241.508 109.712 240.245 109.12 238.038 109.12C232.477 109.12 232.173 109.865 226.666 136.946C223.94 150.355 221.217 164.069 220.615 167.422C219.3 174.741 218.268 177.438 216.532 178.085C214.263 178.931 212.139 175.482 211.119 169.298C210.604 166.17 209.26 157.952 208.133 151.036C206.046 138.226 201.874 114.227 200.982 109.897C200.447 107.298 196.932 103.412 194.663 102.908C193.884 102.735 192.464 102.712 191.508 102.858ZM296.087 181.298C292.594 182.103 282.444 185.672 277.815 187.722C275.106 188.923 272.684 189.904 272.433 189.904C272.182 189.904 265.566 192.98 257.733 196.74C241.191 204.678 222.035 211.243 215.408 211.245C210.851 211.246 205.948 213.203 205.57 215.171C205.149 217.372 209.92 221.727 214.686 223.49C218.912 225.052 220.015 225.117 235.155 224.682C248.686 224.297 251.556 224.408 253.728 225.409C257.464 227.13 258.49 230.062 257.253 235.485C255.992 241.015 248.969 254.689 243.309 262.635C239.631 267.799 217.739 296.083 205.022 312.1C200.483 317.817 200.28 320.729 204.158 324.494C209.181 329.369 208.533 329.804 235.522 303.467C260.714 278.887 262.817 277.275 263.956 281.684C264.649 284.362 264.808 283.971 253.608 307.166C251.712 311.09 250.162 314.41 250.162 314.541C250.162 314.673 248.883 317.462 247.321 320.742C234.489 347.671 233.966 349.48 237.679 354.063C239.007 355.703 239.921 356.041 242.958 356.022C244.976 356.009 247.174 355.58 247.839 355.068C248.504 354.558 252.359 348.31 256.408 341.184C263.5 328.7 267.663 321.467 271.191 315.502C284.22 293.462 284.157 293.552 286.516 293.552C288.023 293.552 288.065 293.907 287.598 302.888C287.173 311.088 286.101 320.86 283.145 343.471C282.027 352.008 282.17 359.183 283.49 360.874C285.044 362.864 290.439 363.426 292.91 361.855C295.447 360.241 296.629 356.163 299.569 338.898C305.796 302.301 307.357 295.34 309.823 293.174C311.343 291.838 311.451 291.839 313.039 293.235C313.942 294.029 315.004 295.265 315.399 295.982C315.795 296.698 316.984 305.276 318.043 315.043C321.02 342.533 321.277 343.956 323.607 345.948C326.182 348.149 328.812 348.123 331.507 345.874C333.559 344.16 333.677 343.659 334.357 333.871C334.746 328.252 334.908 317.14 334.715 309.175C334.34 293.666 335.075 280.68 336.585 276.153C337.098 274.614 339.548 268.726 342.03 263.067C344.512 257.409 348.036 248.321 349.86 242.872C355.483 226.076 355.059 212.59 348.712 206.396C347.364 205.081 343.305 202.464 339.693 200.583C335.079 198.18 330.737 194.983 325.097 189.835C318.654 183.956 316.362 182.335 313.492 181.633C310.005 180.781 299.231 180.573 296.087 181.298ZM357.335 203.579C357.029 204.515 357.6 207.071 358.751 209.911C361.295 216.19 361.874 221.718 360.768 229.153C359.343 238.734 359.402 239.785 361.393 240.06C364.082 240.432 365.452 237.468 366.452 229.111C367.541 220.009 366.585 213.072 363.358 206.671C361.038 202.068 358.29 200.657 357.335 203.579ZM371.592 206.209C371.361 206.793 371.884 209.452 372.755 212.116C374.806 218.393 374.412 228.308 371.81 235.863C370.182 240.592 370.134 241.157 371.266 242.255C373.945 244.857 376.69 241.264 378.559 232.708C380.538 223.642 379.703 212.382 376.64 206.826C375.598 204.935 372.257 204.527 371.592 206.209ZM154.566 271.581C152.949 273.151 153.478 275.389 156.876 281.358C162.643 291.489 176.576 303.09 179.829 300.47C182.133 298.613 181.221 296.902 176.383 294.003C170.337 290.38 165.014 284.497 161.023 277.025C157.842 271.069 156.372 269.829 154.566 271.581ZM143.406 276.392C142.164 277.846 143.157 281.44 146.779 288.598C151.752 298.424 162.508 308.502 166.452 307.032C168.54 306.255 168.002 303.181 165.531 301.764C158.979 298.006 152.612 289.563 149.28 280.215C147.547 275.35 145.459 273.99 143.406 276.392Z" fill="url(#paint1_linear_3_6)"/>
<path d="M254.13 420.119C283.641 413.01 307.744 394.542 335.625 382.537C365.963 369.475 403.07 369.615 426.197 346.031C449.976 321.784 453.209 285.138 463.024 252.626C474.492 214.639 501.144 175.968 488.937 138.211C476.792 100.65 436.605 78.6776 401.163 61.296C369.758 45.8948 332.845 54.0366 299.034 45.0802C264.49 35.9301 235.034 0.536123 200.095 8.0352C165.332 15.4965 154.901 62.0138 125.692 82.2853C91.4171 106.072 35.3611 100.171 14.9252 136.543C-4.77315 171.603 17.012 216.187 28.8687 254.613C39.4388 288.871 59.5377 318.017 80.0019 347.454C100.409 376.808 116.052 413.713 149.046 427.482C181.929 441.204 219.489 428.463 254.13 420.119Z" stroke="white" stroke-width="14" mask="url(#path-1-outside-1_3_6)"/>
<path d="M254.13 107.452V394.099C251.09 394.099 247.871 393.562 245.368 392.131L244.653 391.774C210.319 372.998 150.415 353.328 111.611 348.142L106.425 347.427C89.2585 345.281 75.3105 329.187 75.3105 312.02V96.0072C75.3105 74.7277 92.656 58.6339 113.936 60.4221C151.488 63.4621 208.352 82.4169 240.182 102.266L244.653 104.948C247.335 106.558 250.732 107.452 254.13 107.452Z" stroke="white" stroke-width="14" mask="url(#path-1-outside-1_3_6)"/>
<path d="M432.949 96.1876V312.022C432.949 329.189 419.002 345.283 401.835 347.428L395.934 348.144C356.951 353.329 296.868 373.178 262.535 392.133C260.21 393.564 257.349 394.1 254.13 394.1V107.453C257.528 107.453 260.925 106.559 263.607 104.95L266.647 102.983C298.477 82.955 355.521 63.8213 393.073 60.6026H394.146C415.425 58.8144 432.949 74.7293 432.949 96.1876Z" stroke="white" stroke-width="14" mask="url(#path-1-outside-1_3_6)"/>
<path fill-rule="evenodd" clip-rule="evenodd" d="M191.508 102.858C190.553 103.003 188.648 104.14 187.275 105.385C184.797 107.633 184.783 107.683 185.302 113.147C185.59 116.172 186.168 122.762 186.586 127.792C189.842 167.005 190.376 178.747 188.945 179.606C186.537 181.051 185.209 178.87 162.749 136.593C155.051 122.1 153.583 120.573 148.823 122.098C141.272 124.517 141.866 128.174 153.929 153.516C155.477 156.767 156.742 159.562 156.742 159.728C156.742 159.895 158.1 162.894 159.763 166.394C168.77 185.369 171.117 193.087 168.21 194.17C166.15 194.937 162.48 193.03 159.464 189.625C157.93 187.892 156.042 185.789 155.269 184.95C154.496 184.113 152.303 181.54 150.396 179.234C148.489 176.929 146.747 174.872 146.525 174.662C146.303 174.452 142.67 170.284 138.453 165.398C134.235 160.512 130.237 156.311 129.568 156.062C125.722 154.63 120.63 157.456 120.63 161.022C120.63 164.136 128.34 176.661 144.388 199.617C154.446 214.003 156.809 219.182 159.086 231.82C163.907 258.595 170.467 275.009 178.955 281.537C184.733 285.982 184.896 286.014 198.5 285.45L210.96 284.933L220.427 272.667C225.634 265.919 230.303 259.885 230.804 259.256C234.435 254.687 243.882 238.502 243.882 236.85C243.882 236.614 238.973 236.639 232.974 236.903C225.586 237.231 220.455 237.081 217.076 236.444C211.219 235.337 203.841 232.078 199.794 228.809C193.406 223.649 191.529 214.49 195.511 207.896C198.485 202.969 202.608 200.856 211.275 199.812C218.28 198.971 225.774 196.988 236.62 193.111L242.312 191.076V182.177C242.312 173.059 244.104 141.262 245.464 126.268C246.532 114.478 246.55 114.606 243.568 111.711C241.508 109.712 240.245 109.12 238.038 109.12C232.477 109.12 232.173 109.865 226.666 136.946C223.94 150.355 221.217 164.069 220.615 167.422C219.3 174.741 218.268 177.438 216.532 178.085C214.263 178.931 212.139 175.482 211.119 169.298C210.604 166.17 209.26 157.952 208.133 151.036C206.046 138.226 201.874 114.227 200.982 109.897C200.447 107.298 196.932 103.412 194.663 102.908C193.884 102.735 192.464 102.712 191.508 102.858ZM296.087 181.298C292.594 182.103 282.444 185.672 277.815 187.722C275.106 188.923 272.684 189.904 272.433 189.904C272.182 189.904 265.566 192.98 257.733 196.74C241.191 204.678 222.035 211.243 215.408 211.245C210.851 211.246 205.948 213.203 205.57 215.171C205.149 217.372 209.92 221.727 214.686 223.49C218.912 225.052 220.015 225.117 235.155 224.682C248.686 224.297 251.556 224.408 253.728 225.409C257.464 227.13 258.49 230.062 257.253 235.485C255.992 241.015 248.969 254.689 243.309 262.635C239.631 267.799 217.739 296.083 205.022 312.1C200.483 317.817 200.28 320.729 204.158 324.494C209.181 329.369 208.533 329.804 235.522 303.467C260.714 278.887 262.817 277.275 263.956 281.684C264.649 284.362 264.808 283.971 253.608 307.166C251.712 311.09 250.162 314.41 250.162 314.541C250.162 314.673 248.883 317.462 247.321 320.742C234.489 347.671 233.966 349.48 237.679 354.063C239.007 355.703 239.921 356.041 242.958 356.022C244.976 356.009 247.174 355.58 247.839 355.068C248.504 354.558 252.359 348.31 256.408 341.184C263.5 328.7 267.663 321.467 271.191 315.502C284.22 293.462 284.157 293.552 286.516 293.552C288.023 293.552 288.065 293.907 287.598 302.888C287.173 311.088 286.101 320.86 283.145 343.471C282.027 352.008 282.17 359.183 283.49 360.874C285.044 362.864 290.439 363.426 292.91 361.855C295.447 360.241 296.629 356.163 299.569 338.898C305.796 302.301 307.357 295.34 309.823 293.174C311.343 291.838 311.451 291.839 313.039 293.235C313.942 294.029 315.004 295.265 315.399 295.982C315.795 296.698 316.984 305.276 318.043 315.043C321.02 342.533 321.277 343.956 323.607 345.948C326.182 348.149 328.812 348.123 331.507 345.874C333.559 344.16 333.677 343.659 334.357 333.871C334.746 328.252 334.908 317.14 334.715 309.175C334.34 293.666 335.075 280.68 336.585 276.153C337.098 274.614 339.548 268.726 342.03 263.067C344.512 257.409 348.036 248.321 349.86 242.872C355.483 226.076 355.059 212.59 348.712 206.396C347.364 205.081 343.305 202.464 339.693 200.583C335.079 198.18 330.737 194.983 325.097 189.835C318.654 183.956 316.362 182.335 313.492 181.633C310.005 180.781 299.231 180.573 296.087 181.298ZM357.335 203.579C357.029 204.515 357.6 207.071 358.751 209.911C361.295 216.19 361.874 221.718 360.768 229.153C359.343 238.734 359.402 239.785 361.393 240.06C364.082 240.432 365.452 237.468 366.452 229.111C367.541 220.009 366.585 213.072 363.358 206.671C361.038 202.068 358.29 200.657 357.335 203.579ZM371.592 206.209C371.361 206.793 371.884 209.452 372.755 212.116C374.806 218.393 374.412 228.308 371.81 235.863C370.182 240.592 370.134 241.157 371.266 242.255C373.945 244.857 376.69 241.264 378.559 232.708C380.538 223.642 379.703 212.382 376.64 206.826C375.598 204.935 372.257 204.527 371.592 206.209ZM154.566 271.581C152.949 273.151 153.478 275.389 156.876 281.358C162.643 291.489 176.576 303.09 179.829 300.47C182.133 298.613 181.221 296.902 176.383 294.003C170.337 290.38 165.014 284.497 161.023 277.025C157.842 271.069 156.372 269.829 154.566 271.581ZM143.406 276.392C142.164 277.846 143.157 281.44 146.779 288.598C151.752 298.424 162.508 308.502 166.452 307.032C168.54 306.255 168.002 303.181 165.531 301.764C158.979 298.006 152.612 289.563 149.28 280.215C147.547 275.35 145.459 273.99 143.406 276.392Z" stroke="white" stroke-width="14" mask="url(#path-1-outside-1_3_6)"/>
<path d="M644.085 251.405C644.085 252.772 643.841 254.042 643.353 255.214C642.864 256.386 642.181 257.411 641.302 258.29C640.472 259.12 639.471 259.779 638.299 260.268C637.127 260.756 635.857 261 634.49 261H565.789C564.031 261 562.127 260.805 560.076 260.414C558.074 259.975 556.072 259.315 554.07 258.437C552.117 257.558 550.237 256.435 548.431 255.067C546.624 253.651 545.013 251.967 543.597 250.014C542.229 248.012 541.131 245.717 540.301 243.129C539.471 240.492 539.056 237.538 539.056 234.267V182.704C539.056 180.946 539.251 179.066 539.642 177.064C540.081 175.014 540.74 173.012 541.619 171.059C542.498 169.057 543.646 167.152 545.062 165.346C546.478 163.539 548.162 161.952 550.115 160.585C552.117 159.169 554.412 158.046 557 157.216C559.588 156.386 562.518 155.971 565.789 155.971H643.206V175.014H565.789C563.299 175.014 561.395 175.673 560.076 176.991C558.758 178.31 558.099 180.263 558.099 182.851V234.267C558.099 236.708 558.758 238.612 560.076 239.979C561.443 241.298 563.348 241.957 565.789 241.957H625.042V218.08H574.358V198.891H634.49C635.857 198.891 637.127 199.159 638.299 199.696C639.471 200.185 640.472 200.868 641.302 201.747C642.181 202.626 642.864 203.651 643.353 204.823C643.841 205.946 644.085 207.167 644.085 208.485V251.405ZM696.6 261H688.104C685.369 261 682.439 260.536 679.314 259.608C676.238 258.681 673.357 257.167 670.672 255.067C667.986 252.919 665.765 250.16 664.007 246.791C662.249 243.373 661.37 239.198 661.37 234.267V148.354H680.413V234.267C680.413 236.61 681.146 238.49 682.61 239.906C684.075 241.273 685.906 241.957 688.104 241.957H696.6V261ZM794.964 234.267C794.964 237.538 794.549 240.492 793.719 243.129C792.889 245.717 791.79 248.012 790.423 250.014C789.056 251.967 787.469 253.651 785.662 255.067C783.855 256.435 781.951 257.558 779.949 258.437C777.996 259.315 775.994 259.975 773.943 260.414C771.941 260.805 770.037 261 768.23 261H733.88C731.243 261 728.362 260.536 725.237 259.608C722.112 258.681 719.207 257.167 716.521 255.067C713.885 252.919 711.663 250.16 709.856 246.791C708.099 243.373 707.22 239.198 707.22 234.267V208.485C707.22 203.603 708.099 199.477 709.856 196.107C711.663 192.689 713.885 189.931 716.521 187.831C719.207 185.683 722.112 184.145 725.237 183.217C728.362 182.289 731.243 181.825 733.88 181.825H768.23C773.113 181.825 777.264 182.704 780.682 184.462C784.1 186.22 786.858 188.441 788.958 191.127C791.058 193.764 792.571 196.645 793.499 199.77C794.476 202.895 794.964 205.8 794.964 208.485V234.267ZM775.921 208.632C775.921 205.995 775.262 204.042 773.943 202.772C772.625 201.503 770.721 200.868 768.23 200.868H734.026C731.487 200.868 729.559 201.527 728.24 202.846C726.922 204.115 726.263 205.995 726.263 208.485V234.267C726.263 236.757 726.922 238.661 728.24 239.979C729.559 241.298 731.487 241.957 734.026 241.957H768.23C770.818 241.957 772.747 241.298 774.017 239.979C775.286 238.661 775.921 236.757 775.921 234.267V208.632ZM887.762 234.267C887.762 237.538 887.347 240.492 886.517 243.129C885.687 245.717 884.588 248.012 883.221 250.014C881.854 251.967 880.267 253.651 878.46 255.067C876.653 256.435 874.749 257.558 872.747 258.437C870.794 259.315 868.792 259.975 866.741 260.414C864.739 260.805 862.835 261 861.028 261H809.466V241.957H860.882C863.47 241.957 865.423 241.298 866.741 239.979C868.06 238.661 868.719 236.757 868.719 234.267C868.475 229.188 865.911 226.649 861.028 226.649H831.512C827.312 226.649 823.748 225.917 820.818 224.452C817.889 222.987 815.496 221.156 813.641 218.959C811.834 216.762 810.516 214.394 809.686 211.854C808.904 209.315 808.514 206.947 808.514 204.75C808.514 200.502 809.271 196.938 810.784 194.057C812.298 191.127 814.202 188.759 816.497 186.952C818.792 185.146 821.282 183.852 823.968 183.07C826.653 182.24 829.168 181.825 831.512 181.825H878.313V200.868H831.658C830.682 200.868 829.9 200.99 829.314 201.234C828.777 201.43 828.362 201.723 828.069 202.113C827.825 202.455 827.679 202.846 827.63 203.285C827.581 203.676 827.557 204.066 827.557 204.457C827.605 205.238 827.752 205.849 827.996 206.288C828.24 206.728 828.533 207.045 828.875 207.24C829.266 207.436 829.681 207.558 830.12 207.606C830.608 207.606 831.072 207.606 831.512 207.606H861.028C865.911 207.606 870.062 208.485 873.479 210.243C876.897 212.001 879.656 214.223 881.756 216.908C883.855 219.545 885.369 222.426 886.297 225.551C887.273 228.676 887.762 231.581 887.762 234.267ZM977.703 234.267C977.703 237.538 977.288 240.492 976.458 243.129C975.628 245.717 974.529 248.012 973.162 250.014C971.795 251.967 970.208 253.651 968.401 255.067C966.595 256.435 964.69 257.558 962.688 258.437C960.735 259.315 958.733 259.975 956.683 260.414C954.681 260.805 952.776 261 950.97 261H899.407V241.957H950.823C953.411 241.957 955.364 241.298 956.683 239.979C958.001 238.661 958.66 236.757 958.66 234.267C958.416 229.188 955.853 226.649 950.97 226.649H921.453C917.254 226.649 913.689 225.917 910.76 224.452C907.83 222.987 905.438 221.156 903.582 218.959C901.775 216.762 900.457 214.394 899.627 211.854C898.846 209.315 898.455 206.947 898.455 204.75C898.455 200.502 899.212 196.938 900.726 194.057C902.239 191.127 904.144 188.759 906.438 186.952C908.733 185.146 911.224 183.852 913.909 183.07C916.595 182.24 919.109 181.825 921.453 181.825H968.255V200.868H921.6C920.623 200.868 919.842 200.99 919.256 201.234C918.719 201.43 918.304 201.723 918.011 202.113C917.767 202.455 917.62 202.846 917.571 203.285C917.522 203.676 917.498 204.066 917.498 204.457C917.547 205.238 917.693 205.849 917.938 206.288C918.182 206.728 918.475 207.045 918.816 207.24C919.207 207.436 919.622 207.558 920.062 207.606C920.55 207.606 921.014 207.606 921.453 207.606H950.97C955.853 207.606 960.003 208.485 963.421 210.243C966.839 212.001 969.598 214.223 971.697 216.908C973.797 219.545 975.311 222.426 976.238 225.551C977.215 228.676 977.703 231.581 977.703 234.267ZM1072.84 234.779C1072.84 237.416 1072.38 240.272 1071.45 243.349C1070.53 246.376 1069.01 249.208 1066.91 251.845C1064.86 254.433 1062.15 256.605 1058.78 258.363C1055.46 260.121 1051.41 261 1046.62 261H1012.27C1009.64 261 1006.78 260.536 1003.7 259.608C1000.68 258.681 997.845 257.191 995.208 255.141C992.62 253.041 990.447 250.331 988.689 247.011C986.932 243.642 986.053 239.564 986.053 234.779C986.053 232.143 986.517 229.286 987.444 226.21C988.372 223.134 989.861 220.302 991.912 217.714C994.012 215.077 996.722 212.88 1000.04 211.122C1003.41 209.364 1007.49 208.485 1012.27 208.485H1046.62V226.649H1012.27C1009.69 226.649 1007.68 227.455 1006.27 229.066C1004.85 230.629 1004.14 232.582 1004.14 234.926C1004.14 237.416 1004.95 239.369 1006.56 240.785C1008.22 242.152 1010.17 242.836 1012.42 242.836H1046.62C1049.21 242.836 1051.21 242.055 1052.63 240.492C1054.05 238.93 1054.75 236.977 1054.75 234.633V208.046C1054.75 205.556 1053.97 203.578 1052.41 202.113C1050.9 200.648 1048.97 199.916 1046.62 199.916H1004.8V181.825H1046.62C1049.26 181.825 1052.09 182.289 1055.12 183.217C1058.2 184.145 1061.03 185.658 1063.62 187.758C1066.25 189.809 1068.45 192.519 1070.21 195.888C1071.97 199.208 1072.84 203.261 1072.84 208.046V234.779ZM1070.57 157.948L1032.34 171.645L1027.29 160.658L1062.52 140.15L1070.57 157.948ZM1158.39 200.868H1115.54C1112.96 200.868 1111 201.527 1109.69 202.846C1108.37 204.115 1107.71 205.995 1107.71 208.485V261H1088.67V208.485C1088.67 205.214 1089.08 202.284 1089.91 199.696C1090.74 197.108 1091.84 194.838 1093.21 192.885C1094.62 190.883 1096.23 189.198 1098.04 187.831C1099.85 186.415 1101.73 185.268 1103.68 184.389C1105.68 183.51 1107.68 182.875 1109.69 182.484C1111.74 182.045 1113.64 181.825 1115.4 181.825H1158.39V200.868ZM1190.33 165.565H1171.28V148.354H1190.33V165.565ZM1190.33 261H1171.28V181.825H1190.33V261ZM1294.77 234.267C1294.77 237.538 1294.35 240.492 1293.52 243.129C1292.69 245.717 1291.59 248.012 1290.23 250.014C1288.86 251.967 1287.27 253.651 1285.47 255.067C1283.66 256.435 1281.76 257.558 1279.75 258.437C1277.8 259.315 1275.8 259.975 1273.75 260.414C1271.75 260.805 1269.84 261 1268.04 261H1233.68C1231.05 261 1228.17 260.536 1225.04 259.608C1221.92 258.681 1219.01 257.167 1216.33 255.067C1213.69 252.919 1211.47 250.16 1209.66 246.791C1207.9 243.373 1207.02 239.198 1207.02 234.267V208.485C1207.02 203.603 1207.9 199.477 1209.66 196.107C1211.47 192.689 1213.69 189.931 1216.33 187.831C1219.01 185.683 1221.92 184.145 1225.04 183.217C1228.17 182.289 1231.05 181.825 1233.68 181.825H1268.04C1272.92 181.825 1277.07 182.704 1280.49 184.462C1283.9 186.22 1286.66 188.441 1288.76 191.127C1290.86 193.764 1292.38 196.645 1293.3 199.77C1294.28 202.895 1294.77 205.8 1294.77 208.485V234.267ZM1275.73 208.632C1275.73 205.995 1275.07 204.042 1273.75 202.772C1272.43 201.503 1270.53 200.868 1268.04 200.868H1233.83C1231.29 200.868 1229.36 201.527 1228.04 202.846C1226.73 204.115 1226.07 205.995 1226.07 208.485V234.267C1226.07 236.757 1226.73 238.661 1228.04 239.979C1229.36 241.298 1231.29 241.957 1233.83 241.957H1268.04C1270.62 241.957 1272.55 241.298 1273.82 239.979C1275.09 238.661 1275.73 236.757 1275.73 234.267V208.632ZM791.002 312.1H806.602V365.9H838.502V377H791.002V312.1ZM848.81 311.1H863.41V322.9H848.81V311.1ZM848.81 328.6H863.41V377H848.81V328.6ZM901.132 378C894.999 378 890.132 377.367 886.532 376.1C882.999 374.833 880.466 372.9 878.932 370.3C877.399 367.633 876.632 364.133 876.632 359.8V307H891.232V333.4C892.099 331.2 893.699 329.7 896.032 328.9C898.366 328.033 901.999 327.6 906.932 327.6C911.132 327.6 914.499 327.933 917.032 328.6C919.632 329.267 921.599 330.333 922.932 331.8C924.199 333.267 925.066 334.9 925.532 336.7C925.999 338.433 926.232 340.833 926.232 343.9V359.8C926.232 366.333 924.266 371 920.332 373.8C916.399 376.6 909.999 378 901.132 378ZM901.332 368.9C904.199 368.9 906.366 368.7 907.832 368.3C909.299 367.9 910.299 367.2 910.832 366.2C911.366 365.2 911.632 363.7 911.632 361.7V343.8C911.632 341.6 911.399 340.033 910.932 339.1C910.466 338.1 909.532 337.433 908.132 337.1C906.732 336.767 904.432 336.6 901.232 336.6C898.499 336.6 896.399 336.833 894.932 337.3C893.532 337.767 892.566 338.5 892.032 339.5C891.499 340.5 891.232 341.933 891.232 343.8V361.7C891.232 363.7 891.466 365.2 891.932 366.2C892.466 367.2 893.432 367.9 894.832 368.3C896.299 368.7 898.466 368.9 901.332 368.9ZM937.668 328.6H951.568V337.1C951.568 335.567 952.201 334.067 953.468 332.6C954.734 331.133 956.334 329.933 958.268 329C960.268 328.067 962.234 327.6 964.168 327.6H969.368V339.7H964.368C960.234 339.7 957.168 340.333 955.168 341.6C953.234 342.867 952.268 344.967 952.268 347.9V377H937.668V328.6ZM991.114 378C986.58 378 983.18 377.6 980.914 376.8C978.714 375.933 977.147 374.433 976.214 372.3C975.347 370.1 974.914 366.833 974.914 362.5C974.914 358.633 975.38 355.6 976.314 353.4C977.314 351.2 978.88 349.633 981.014 348.7C983.214 347.7 986.214 347.2 990.014 347.2H1006.41V343.9C1006.41 341.833 1006.11 340.3 1005.51 339.3C1004.98 338.3 1003.95 337.6 1002.41 337.2C1000.95 336.8 998.714 336.6 995.714 336.6C991.58 336.6 985.914 337 978.714 337.8V328.6C983.98 327.933 990.147 327.6 997.214 327.6C1003.41 327.6 1008.18 328.067 1011.51 329C1014.91 329.933 1017.35 331.533 1018.81 333.8C1020.28 336.067 1021.01 339.367 1021.01 343.7V377H1006.71V372.6C1005.58 374.533 1004.05 375.9 1002.11 376.7C1000.18 377.567 996.514 378 991.114 378ZM996.814 368.9C999.747 368.9 1001.85 368.8 1003.11 368.6C1004.05 368.467 1004.68 368.267 1005.01 368C1005.41 367.733 1005.75 367.3 1006.01 366.7C1006.28 366.233 1006.41 365.533 1006.41 364.6V355.2H996.414C994.147 355.2 992.547 355.367 991.614 355.7C990.68 355.967 990.047 356.567 989.714 357.5C989.38 358.367 989.214 359.933 989.214 362.2C989.214 364.4 989.38 365.933 989.714 366.8C990.047 367.667 990.68 368.233 991.614 368.5C992.614 368.767 994.347 368.9 996.814 368.9ZM1051.96 378C1046.76 378 1040.39 377.5 1032.86 376.5V366.8C1042.13 368.2 1048.56 368.9 1052.16 368.9C1055.23 368.9 1057.49 368.6 1058.96 368C1060.43 367.4 1061.16 366.3 1061.16 364.7V361.7C1061.16 360.033 1060.69 358.867 1059.76 358.2C1058.83 357.467 1056.99 357.1 1054.26 357.1H1047.96C1042.83 357.1 1038.86 356.1 1036.06 354.1C1033.26 352.033 1031.86 349.033 1031.86 345.1V339.2C1031.86 335 1033.86 332.033 1037.86 330.3C1041.86 328.5 1047.89 327.6 1055.96 327.6C1059.16 327.6 1064.89 327.9 1073.16 328.5V337.8C1062.76 337 1056.89 336.6 1055.56 336.6C1051.63 336.6 1049.06 336.867 1047.86 337.4C1046.79 338 1046.26 339.1 1046.26 340.7V343.3C1046.26 344.167 1046.69 344.933 1047.56 345.6C1048.43 346.2 1049.69 346.5 1051.36 346.5H1057.76C1069.63 346.5 1075.56 350.367 1075.56 358.1V364.2C1075.56 366.533 1075.13 368.567 1074.26 370.3C1073.39 372.033 1072.26 373.4 1070.86 374.4C1069.53 375.333 1067.79 376.067 1065.66 376.6C1063.59 377.133 1061.43 377.5 1059.16 377.7C1057.09 377.9 1054.69 378 1051.96 378Z" fill="white"/>
<defs>
<linearGradient id="paint0_linear_3_6" x1="249.533" y1="7" x2="249.533" y2="433.537" gradientUnits="userSpaceOnUse">
<stop stop-color="#2266D2"/>
<stop offset="1" stop-color="#113817"/>
</linearGradient>
<linearGradient id="paint1_linear_3_6" x1="250.13" y1="102.762" x2="250.13" y2="362.762" gradientUnits="userSpaceOnUse">
<stop stop-color="#2266D2"/>
<stop offset="1" stop-color="#113817"/>
</linearGradient>
</defs>
</svg>
