<svg width="1288" height="427" viewBox="0 0 1288 427" fill="none" xmlns="http://www.w3.org/2000/svg">
<path d="M247.13 413.119C276.641 406.01 300.744 387.542 328.625 375.537C358.963 362.475 396.07 362.615 419.197 339.031C442.976 314.784 446.209 278.138 456.024 245.626C467.492 207.639 494.144 168.968 481.937 131.211C469.792 93.6503 429.605 71.6776 394.163 54.296C362.758 38.8948 325.845 47.0366 292.034 38.0802C257.49 28.9301 228.034 -6.46388 193.095 1.0352C158.332 8.4965 147.901 55.0138 118.692 75.2853C84.4171 99.072 28.3611 93.1712 7.9252 129.543C-11.7731 164.603 10.012 209.187 21.8687 247.613C32.4388 281.871 52.5377 311.017 73.0019 340.454C93.4092 369.808 109.052 406.713 142.046 420.482C174.929 434.204 212.489 421.463 247.13 413.119Z" fill="url(#paint0_linear_1_5)"/>
<path d="M247.13 100.452V387.099C244.09 387.099 240.871 386.562 238.368 385.131L237.653 384.774C203.319 365.998 143.415 346.328 104.611 341.142L99.4251 340.427C82.2585 338.281 68.3105 322.187 68.3105 305.02V89.0072C68.3105 67.7277 85.656 51.6339 106.936 53.4221C144.488 56.4621 201.352 75.4169 233.182 95.2659L237.653 97.9482C240.335 99.5575 243.732 100.452 247.13 100.452Z" fill="#2F9E41"/>
<path d="M425.949 89.1876V305.022C425.949 322.189 412.002 338.283 394.835 340.428L388.934 341.144C349.951 346.329 289.868 366.178 255.535 385.133C253.21 386.564 250.349 387.1 247.13 387.1V100.453C250.528 100.453 253.925 99.5592 256.607 97.9498L259.647 95.9828C291.477 75.955 348.521 56.8213 386.073 53.6026H387.146C408.425 51.8144 425.949 67.7293 425.949 89.1876Z" fill="#2F9E41"/>
<path fill-rule="evenodd" clip-rule="evenodd" d="M184.508 95.8576C183.553 96.0032 181.648 97.1403 180.275 98.3848C177.797 100.633 177.783 100.683 178.302 106.147C178.59 109.172 179.168 115.762 179.586 120.792C182.842 160.005 183.376 171.747 181.945 172.606C179.537 174.051 178.209 171.87 155.749 129.593C148.051 115.1 146.583 113.573 141.823 115.098C134.272 117.517 134.866 121.174 146.929 146.516C148.477 149.767 149.742 152.562 149.742 152.728C149.742 152.895 151.1 155.894 152.763 159.394C161.77 178.369 164.117 186.087 161.21 187.17C159.15 187.937 155.48 186.03 152.464 182.625C150.93 180.892 149.042 178.789 148.269 177.95C147.496 177.113 145.303 174.54 143.396 172.234C141.489 169.929 139.747 167.872 139.525 167.662C139.303 167.452 135.67 163.284 131.453 158.398C127.235 153.512 123.237 149.311 122.568 149.062C118.722 147.63 113.63 150.456 113.63 154.022C113.63 157.136 121.34 169.661 137.388 192.617C147.446 207.003 149.809 212.182 152.086 224.82C156.907 251.595 163.467 268.009 171.955 274.537C177.733 278.982 177.896 279.014 191.5 278.45L203.96 277.933L213.427 265.667C218.634 258.919 223.303 252.885 223.804 252.256C227.435 247.687 236.882 231.502 236.882 229.85C236.882 229.614 231.973 229.639 225.974 229.903C218.586 230.231 213.455 230.081 210.076 229.444C204.219 228.337 196.841 225.078 192.794 221.809C186.406 216.649 184.529 207.49 188.511 200.896C191.485 195.969 195.608 193.856 204.275 192.812C211.28 191.971 218.774 189.988 229.62 186.111L235.312 184.076V175.177C235.312 166.059 237.104 134.262 238.464 119.268C239.532 107.478 239.55 107.606 236.568 104.711C234.508 102.712 233.245 102.12 231.038 102.12C225.477 102.12 225.173 102.865 219.666 129.946C216.94 143.355 214.217 157.069 213.615 160.422C212.3 167.741 211.268 170.438 209.532 171.085C207.263 171.931 205.139 168.482 204.119 162.298C203.604 159.17 202.26 150.952 201.133 144.036C199.046 131.226 194.874 107.227 193.982 102.897C193.447 100.298 189.932 96.4116 187.663 95.9079C186.884 95.7349 185.464 95.712 184.508 95.8576ZM289.087 174.298C285.594 175.103 275.444 178.672 270.815 180.722C268.106 181.923 265.684 182.904 265.433 182.904C265.182 182.904 258.566 185.98 250.733 189.74C234.191 197.678 215.035 204.243 208.408 204.245C203.851 204.246 198.948 206.203 198.57 208.171C198.149 210.372 202.92 214.727 207.686 216.49C211.912 218.052 213.015 218.117 228.155 217.682C241.686 217.297 244.556 217.408 246.728 218.409C250.464 220.13 251.49 223.062 250.253 228.485C248.992 234.015 241.969 247.689 236.309 255.635C232.631 260.799 210.739 289.083 198.022 305.1C193.483 310.817 193.28 313.729 197.158 317.494C202.181 322.369 201.533 322.804 228.522 296.467C253.714 271.887 255.817 270.275 256.956 274.684C257.649 277.362 257.808 276.971 246.608 300.166C244.712 304.09 243.162 307.41 243.162 307.541C243.162 307.673 241.883 310.462 240.321 313.742C227.489 340.671 226.966 342.48 230.679 347.063C232.007 348.703 232.921 349.041 235.958 349.022C237.976 349.009 240.174 348.58 240.839 348.068C241.504 347.558 245.359 341.31 249.408 334.184C256.5 321.7 260.663 314.467 264.191 308.502C277.22 286.462 277.157 286.552 279.516 286.552C281.023 286.552 281.065 286.907 280.598 295.888C280.173 304.088 279.101 313.86 276.145 336.471C275.027 345.008 275.17 352.183 276.49 353.874C278.044 355.864 283.439 356.426 285.91 354.855C288.447 353.241 289.629 349.163 292.569 331.898C298.796 295.301 300.357 288.34 302.823 286.174C304.343 284.838 304.451 284.839 306.039 286.235C306.942 287.029 308.004 288.265 308.399 288.982C308.795 289.698 309.984 298.276 311.043 308.043C314.02 335.533 314.277 336.956 316.607 338.948C319.182 341.149 321.812 341.123 324.507 338.874C326.559 337.16 326.677 336.659 327.357 326.871C327.746 321.252 327.908 310.14 327.715 302.175C327.34 286.666 328.075 273.68 329.585 269.153C330.098 267.614 332.548 261.726 335.03 256.067C337.512 250.409 341.036 241.321 342.86 235.872C348.483 219.076 348.059 205.59 341.712 199.396C340.364 198.081 336.305 195.464 332.693 193.583C328.079 191.18 323.737 187.983 318.097 182.835C311.654 176.956 309.362 175.335 306.492 174.633C303.005 173.781 292.231 173.573 289.087 174.298ZM350.335 196.579C350.029 197.515 350.6 200.071 351.751 202.911C354.295 209.19 354.874 214.718 353.768 222.153C352.343 231.734 352.402 232.785 354.393 233.06C357.082 233.432 358.452 230.468 359.452 222.111C360.541 213.009 359.585 206.072 356.358 199.671C354.038 195.068 351.29 193.657 350.335 196.579ZM364.592 199.209C364.361 199.793 364.884 202.452 365.755 205.116C367.806 211.393 367.412 221.308 364.81 228.863C363.182 233.592 363.134 234.157 364.266 235.255C366.945 237.857 369.69 234.264 371.559 225.708C373.538 216.642 372.703 205.382 369.64 199.826C368.598 197.935 365.257 197.527 364.592 199.209ZM147.566 264.581C145.949 266.151 146.478 268.389 149.876 274.358C155.643 284.489 169.576 296.09 172.829 293.47C175.133 291.613 174.221 289.902 169.383 287.003C163.337 283.38 158.014 277.497 154.023 270.025C150.842 264.069 149.372 262.829 147.566 264.581ZM136.406 269.392C135.164 270.846 136.157 274.44 139.779 281.598C144.752 291.424 155.508 301.502 159.452 300.032C161.54 299.255 161.002 296.181 158.531 294.764C151.979 291.006 145.612 282.563 142.28 273.215C140.547 268.35 138.459 266.99 136.406 269.392Z" fill="url(#paint1_linear_1_5)"/>
<path d="M637.085 244.405C637.085 245.772 636.841 247.042 636.353 248.214C635.864 249.386 635.181 250.411 634.302 251.29C633.472 252.12 632.471 252.779 631.299 253.268C630.127 253.756 628.857 254 627.49 254H558.789C557.031 254 555.127 253.805 553.076 253.414C551.074 252.975 549.072 252.315 547.07 251.437C545.117 250.558 543.237 249.435 541.431 248.067C539.624 246.651 538.013 244.967 536.597 243.014C535.229 241.012 534.131 238.717 533.301 236.129C532.471 233.492 532.056 230.538 532.056 227.267V175.704C532.056 173.946 532.251 172.066 532.642 170.064C533.081 168.014 533.74 166.012 534.619 164.059C535.498 162.057 536.646 160.152 538.062 158.346C539.478 156.539 541.162 154.952 543.115 153.585C545.117 152.169 547.412 151.046 550 150.216C552.588 149.386 555.518 148.971 558.789 148.971H636.206V168.014H558.789C556.299 168.014 554.395 168.673 553.076 169.991C551.758 171.31 551.099 173.263 551.099 175.851V227.267C551.099 229.708 551.758 231.612 553.076 232.979C554.443 234.298 556.348 234.957 558.789 234.957H618.042V211.08H567.358V191.891H627.49C628.857 191.891 630.127 192.159 631.299 192.696C632.471 193.185 633.472 193.868 634.302 194.747C635.181 195.626 635.864 196.651 636.353 197.823C636.841 198.946 637.085 200.167 637.085 201.485V244.405Z" fill="white"/>
<path d="M689.6 254H681.104C678.369 254 675.439 253.536 672.314 252.608C669.238 251.681 666.357 250.167 663.672 248.067C660.986 245.919 658.765 243.16 657.007 239.791C655.249 236.373 654.37 232.198 654.37 227.267V141.354H673.413V227.267C673.413 229.61 674.146 231.49 675.61 232.906C677.075 234.273 678.906 234.957 681.104 234.957H689.6V254Z" fill="white"/>
<path d="M787.964 227.267C787.964 230.538 787.549 233.492 786.719 236.129C785.889 238.717 784.79 241.012 783.423 243.014C782.056 244.967 780.469 246.651 778.662 248.067C776.855 249.435 774.951 250.558 772.949 251.437C770.996 252.315 768.994 252.975 766.943 253.414C764.941 253.805 763.037 254 761.23 254H726.88C724.243 254 721.362 253.536 718.237 252.608C715.112 251.681 712.207 250.167 709.521 248.067C706.885 245.919 704.663 243.16 702.856 239.791C701.099 236.373 700.22 232.198 700.22 227.267V201.485C700.22 196.603 701.099 192.477 702.856 189.107C704.663 185.689 706.885 182.931 709.521 180.831C712.207 178.683 715.112 177.145 718.237 176.217C721.362 175.289 724.243 174.825 726.88 174.825H761.23C766.113 174.825 770.264 175.704 773.682 177.462C777.1 179.22 779.858 181.441 781.958 184.127C784.058 186.764 785.571 189.645 786.499 192.77C787.476 195.895 787.964 198.8 787.964 201.485V227.267ZM768.921 201.632C768.921 198.995 768.262 197.042 766.943 195.772C765.625 194.503 763.721 193.868 761.23 193.868H727.026C724.487 193.868 722.559 194.527 721.24 195.846C719.922 197.115 719.263 198.995 719.263 201.485V227.267C719.263 229.757 719.922 231.661 721.24 232.979C722.559 234.298 724.487 234.957 727.026 234.957H761.23C763.818 234.957 765.747 234.298 767.017 232.979C768.286 231.661 768.921 229.757 768.921 227.267V201.632Z" fill="white"/>
<path d="M880.762 227.267C880.762 230.538 880.347 233.492 879.517 236.129C878.687 238.717 877.588 241.012 876.221 243.014C874.854 244.967 873.267 246.651 871.46 248.067C869.653 249.435 867.749 250.558 865.747 251.437C863.794 252.315 861.792 252.975 859.741 253.414C857.739 253.805 855.835 254 854.028 254H802.466V234.957H853.882C856.47 234.957 858.423 234.298 859.741 232.979C861.06 231.661 861.719 229.757 861.719 227.267C861.475 222.188 858.911 219.649 854.028 219.649H824.512C820.312 219.649 816.748 218.917 813.818 217.452C810.889 215.987 808.496 214.156 806.641 211.959C804.834 209.762 803.516 207.394 802.686 204.854C801.904 202.315 801.514 199.947 801.514 197.75C801.514 193.502 802.271 189.938 803.784 187.057C805.298 184.127 807.202 181.759 809.497 179.952C811.792 178.146 814.282 176.852 816.968 176.07C819.653 175.24 822.168 174.825 824.512 174.825H871.313V193.868H824.658C823.682 193.868 822.9 193.99 822.314 194.234C821.777 194.43 821.362 194.723 821.069 195.113C820.825 195.455 820.679 195.846 820.63 196.285C820.581 196.676 820.557 197.066 820.557 197.457C820.605 198.238 820.752 198.849 820.996 199.288C821.24 199.728 821.533 200.045 821.875 200.24C822.266 200.436 822.681 200.558 823.12 200.606C823.608 200.606 824.072 200.606 824.512 200.606H854.028C858.911 200.606 863.062 201.485 866.479 203.243C869.897 205.001 872.656 207.223 874.756 209.908C876.855 212.545 878.369 215.426 879.297 218.551C880.273 221.676 880.762 224.581 880.762 227.267Z" fill="white"/>
<path d="M970.703 227.267C970.703 230.538 970.288 233.492 969.458 236.129C968.628 238.717 967.529 241.012 966.162 243.014C964.795 244.967 963.208 246.651 961.401 248.067C959.595 249.435 957.69 250.558 955.688 251.437C953.735 252.315 951.733 252.975 949.683 253.414C947.681 253.805 945.776 254 943.97 254H892.407V234.957H943.823C946.411 234.957 948.364 234.298 949.683 232.979C951.001 231.661 951.66 229.757 951.66 227.267C951.416 222.188 948.853 219.649 943.97 219.649H914.453C910.254 219.649 906.689 218.917 903.76 217.452C900.83 215.987 898.438 214.156 896.582 211.959C894.775 209.762 893.457 207.394 892.627 204.854C891.846 202.315 891.455 199.947 891.455 197.75C891.455 193.502 892.212 189.938 893.726 187.057C895.239 184.127 897.144 181.759 899.438 179.952C901.733 178.146 904.224 176.852 906.909 176.07C909.595 175.24 912.109 174.825 914.453 174.825H961.255V193.868H914.6C913.623 193.868 912.842 193.99 912.256 194.234C911.719 194.43 911.304 194.723 911.011 195.113C910.767 195.455 910.62 195.846 910.571 196.285C910.522 196.676 910.498 197.066 910.498 197.457C910.547 198.238 910.693 198.849 910.938 199.288C911.182 199.728 911.475 200.045 911.816 200.24C912.207 200.436 912.622 200.558 913.062 200.606C913.55 200.606 914.014 200.606 914.453 200.606H943.97C948.853 200.606 953.003 201.485 956.421 203.243C959.839 205.001 962.598 207.223 964.697 209.908C966.797 212.545 968.311 215.426 969.238 218.551C970.215 221.676 970.703 224.581 970.703 227.267Z" fill="white"/>
<path d="M1065.84 227.779C1065.84 230.416 1065.38 233.272 1064.45 236.349C1063.53 239.376 1062.01 242.208 1059.91 244.845C1057.86 247.433 1055.15 249.605 1051.78 251.363C1048.46 253.121 1044.41 254 1039.62 254H1005.27C1002.64 254 999.78 253.536 996.704 252.608C993.677 251.681 990.845 250.191 988.208 248.141C985.62 246.041 983.447 243.331 981.689 240.011C979.932 236.642 979.053 232.564 979.053 227.779C979.053 225.143 979.517 222.286 980.444 219.21C981.372 216.134 982.861 213.302 984.912 210.714C987.012 208.077 989.722 205.88 993.042 204.122C996.411 202.364 1000.49 201.485 1005.27 201.485H1039.62V219.649H1005.27C1002.69 219.649 1000.68 220.455 999.268 222.066C997.852 223.629 997.144 225.582 997.144 227.926C997.144 230.416 997.949 232.369 999.561 233.785C1001.22 235.152 1003.17 235.836 1005.42 235.836H1039.62C1042.21 235.836 1044.21 235.055 1045.63 233.492C1047.05 231.93 1047.75 229.977 1047.75 227.633V201.046C1047.75 198.556 1046.97 196.578 1045.41 195.113C1043.9 193.648 1041.97 192.916 1039.62 192.916H997.803V174.825H1039.62C1042.26 174.825 1045.09 175.289 1048.12 176.217C1051.2 177.145 1054.03 178.658 1056.62 180.758C1059.25 182.809 1061.45 185.519 1063.21 188.888C1064.97 192.208 1065.84 196.261 1065.84 201.046V227.779ZM1063.57 150.948L1025.34 164.645L1020.29 153.658L1055.52 133.15L1063.57 150.948Z" fill="white"/>
<path d="M1151.39 193.868H1108.54C1105.96 193.868 1104 194.527 1102.69 195.846C1101.37 197.115 1100.71 198.995 1100.71 201.485V254H1081.67V201.485C1081.67 198.214 1082.08 195.284 1082.91 192.696C1083.74 190.108 1084.84 187.838 1086.21 185.885C1087.62 183.883 1089.23 182.198 1091.04 180.831C1092.85 179.415 1094.73 178.268 1096.68 177.389C1098.68 176.51 1100.68 175.875 1102.69 175.484C1104.74 175.045 1106.64 174.825 1108.4 174.825H1151.39V193.868Z" fill="white"/>
<path d="M1183.33 158.565H1164.28V141.354H1183.33V158.565ZM1183.33 254H1164.28V174.825H1183.33V254Z" fill="white"/>
<path d="M1287.77 227.267C1287.77 230.538 1287.35 233.492 1286.52 236.129C1285.69 238.717 1284.59 241.012 1283.23 243.014C1281.86 244.967 1280.27 246.651 1278.47 248.067C1276.66 249.435 1274.76 250.558 1272.75 251.437C1270.8 252.315 1268.8 252.975 1266.75 253.414C1264.75 253.805 1262.84 254 1261.04 254H1226.68C1224.05 254 1221.17 253.536 1218.04 252.608C1214.92 251.681 1212.01 250.167 1209.33 248.067C1206.69 245.919 1204.47 243.16 1202.66 239.791C1200.9 236.373 1200.02 232.198 1200.02 227.267V201.485C1200.02 196.603 1200.9 192.477 1202.66 189.107C1204.47 185.689 1206.69 182.931 1209.33 180.831C1212.01 178.683 1214.92 177.145 1218.04 176.217C1221.17 175.289 1224.05 174.825 1226.68 174.825H1261.04C1265.92 174.825 1270.07 175.704 1273.49 177.462C1276.9 179.22 1279.66 181.441 1281.76 184.127C1283.86 186.764 1285.38 189.645 1286.3 192.77C1287.28 195.895 1287.77 198.8 1287.77 201.485V227.267ZM1268.73 201.632C1268.73 198.995 1268.07 197.042 1266.75 195.772C1265.43 194.503 1263.53 193.868 1261.04 193.868H1226.83C1224.29 193.868 1222.36 194.527 1221.04 195.846C1219.73 197.115 1219.07 198.995 1219.07 201.485V227.267C1219.07 229.757 1219.73 231.661 1221.04 232.979C1222.36 234.298 1224.29 234.957 1226.83 234.957H1261.04C1263.62 234.957 1265.55 234.298 1266.82 232.979C1268.09 231.661 1268.73 229.757 1268.73 227.267V201.632Z" fill="white"/>
<path d="M784.002 305.1H799.602V358.9H831.502V370H784.002V305.1Z" fill="white"/>
<path d="M841.81 304.1H856.41V315.9H841.81V304.1ZM841.81 321.6H856.41V370H841.81V321.6Z" fill="white"/>
<path d="M894.132 371C887.999 371 883.132 370.367 879.532 369.1C875.999 367.833 873.466 365.9 871.932 363.3C870.399 360.633 869.632 357.133 869.632 352.8V300H884.232V326.4C885.099 324.2 886.699 322.7 889.032 321.9C891.366 321.033 894.999 320.6 899.932 320.6C904.132 320.6 907.499 320.933 910.032 321.6C912.632 322.267 914.599 323.333 915.932 324.8C917.199 326.267 918.066 327.9 918.532 329.7C918.999 331.433 919.232 333.833 919.232 336.9V352.8C919.232 359.333 917.266 364 913.332 366.8C909.399 369.6 902.999 371 894.132 371ZM894.332 361.9C897.199 361.9 899.366 361.7 900.832 361.3C902.299 360.9 903.299 360.2 903.832 359.2C904.366 358.2 904.632 356.7 904.632 354.7V336.8C904.632 334.6 904.399 333.033 903.932 332.1C903.466 331.1 902.532 330.433 901.132 330.1C899.732 329.767 897.432 329.6 894.232 329.6C891.499 329.6 889.399 329.833 887.932 330.3C886.532 330.767 885.566 331.5 885.032 332.5C884.499 333.5 884.232 334.933 884.232 336.8V354.7C884.232 356.7 884.466 358.2 884.932 359.2C885.466 360.2 886.432 360.9 887.832 361.3C889.299 361.7 891.466 361.9 894.332 361.9Z" fill="white"/>
<path d="M930.668 321.6H944.568V330.1C944.568 328.567 945.201 327.067 946.468 325.6C947.734 324.133 949.334 322.933 951.268 322C953.268 321.067 955.234 320.6 957.168 320.6H962.368V332.7H957.368C953.234 332.7 950.168 333.333 948.168 334.6C946.234 335.867 945.268 337.967 945.268 340.9V370H930.668V321.6Z" fill="white"/>
<path d="M984.114 371C979.58 371 976.18 370.6 973.914 369.8C971.714 368.933 970.147 367.433 969.214 365.3C968.347 363.1 967.914 359.833 967.914 355.5C967.914 351.633 968.38 348.6 969.314 346.4C970.314 344.2 971.88 342.633 974.014 341.7C976.214 340.7 979.214 340.2 983.014 340.2H999.414V336.9C999.414 334.833 999.114 333.3 998.514 332.3C997.98 331.3 996.947 330.6 995.414 330.2C993.947 329.8 991.714 329.6 988.714 329.6C984.58 329.6 978.914 330 971.714 330.8V321.6C976.98 320.933 983.147 320.6 990.214 320.6C996.414 320.6 1001.18 321.067 1004.51 322C1007.91 322.933 1010.35 324.533 1011.81 326.8C1013.28 329.067 1014.01 332.367 1014.01 336.7V370H999.714V365.6C998.58 367.533 997.047 368.9 995.114 369.7C993.18 370.567 989.514 371 984.114 371ZM989.814 361.9C992.747 361.9 994.847 361.8 996.114 361.6C997.047 361.467 997.68 361.267 998.014 361C998.414 360.733 998.747 360.3 999.014 359.7C999.28 359.233 999.414 358.533 999.414 357.6V348.2H989.414C987.147 348.2 985.547 348.367 984.614 348.7C983.68 348.967 983.047 349.567 982.714 350.5C982.38 351.367 982.214 352.933 982.214 355.2C982.214 357.4 982.38 358.933 982.714 359.8C983.047 360.667 983.68 361.233 984.614 361.5C985.614 361.767 987.347 361.9 989.814 361.9Z" fill="white"/>
<path d="M1044.96 371C1039.76 371 1033.39 370.5 1025.86 369.5V359.8C1035.13 361.2 1041.56 361.9 1045.16 361.9C1048.23 361.9 1050.49 361.6 1051.96 361C1053.43 360.4 1054.16 359.3 1054.16 357.7V354.7C1054.16 353.033 1053.69 351.867 1052.76 351.2C1051.83 350.467 1049.99 350.1 1047.26 350.1H1040.96C1035.83 350.1 1031.86 349.1 1029.06 347.1C1026.26 345.033 1024.86 342.033 1024.86 338.1V332.2C1024.86 328 1026.86 325.033 1030.86 323.3C1034.86 321.5 1040.89 320.6 1048.96 320.6C1052.16 320.6 1057.89 320.9 1066.16 321.5V330.8C1055.76 330 1049.89 329.6 1048.56 329.6C1044.63 329.6 1042.06 329.867 1040.86 330.4C1039.79 331 1039.26 332.1 1039.26 333.7V336.3C1039.26 337.167 1039.69 337.933 1040.56 338.6C1041.43 339.2 1042.69 339.5 1044.36 339.5H1050.76C1062.63 339.5 1068.56 343.367 1068.56 351.1V357.2C1068.56 359.533 1068.13 361.567 1067.26 363.3C1066.39 365.033 1065.26 366.4 1063.86 367.4C1062.53 368.333 1060.79 369.067 1058.66 369.6C1056.59 370.133 1054.43 370.5 1052.16 370.7C1050.09 370.9 1047.69 371 1044.96 371Z" fill="white"/>
<defs>
<linearGradient id="paint0_linear_1_5" x1="643.884" y1="0" x2="643.884" y2="426.537" gradientUnits="userSpaceOnUse">
<stop stop-color="#2266D2"/>
<stop offset="1" stop-color="#113817"/>
</linearGradient>
<linearGradient id="paint1_linear_1_5" x1="645.468" y1="95.7617" x2="645.468" y2="355.762" gradientUnits="userSpaceOnUse">
<stop stop-color="#2266D2"/>
<stop offset="1" stop-color="#113817"/>
</linearGradient>
</defs>
</svg>
